# 3ds Max Wavefront OBJ Exporter v0.97b - (c)2007 guruware
# 创建的文件:31.01.2024 16:16:57

mtllib arrow_bend.mtl

#
# object Plane001
#

v  -1.8878 3.0049 1.4552
v  -0.3798 3.0049 1.5739
v  -0.3798 3.0049 -2.4261
v  -1.2620 3.0049 -2.4956
v  -3.3586 3.0049 1.1021
v  -2.1225 3.0049 -2.7022
v  -4.7560 3.0049 0.5232
v  -2.9401 3.0049 -3.0408
v  -6.0457 3.0049 -0.2671
v  -3.6946 3.0049 -3.5032
v  -7.1959 3.0049 -1.2495
v  -4.3675 3.0049 -4.0779
v  -8.1783 3.0049 -2.3997
v  -4.9422 3.0049 -4.7508
v  -8.9686 3.0049 -3.6894
v  -5.4046 3.0049 -5.5053
v  -9.5475 3.0049 -5.0868
v  -5.7432 3.0049 -6.3229
v  -9.9006 3.0049 -6.5576
v  -5.9498 3.0049 -7.1834
v  -10.0193 3.0049 -8.0656
v  -6.0193 3.0049 -8.0656
v  -9.9006 3.0049 -9.5735
v  -5.9498 3.0049 -8.9478
v  -9.5475 3.0049 -11.0443
v  -5.7432 3.0049 -9.8083
v  -8.9686 3.0049 -12.4418
v  -5.4046 3.0049 -10.6258
v  -8.1783 3.0049 -13.7315
v  -4.9422 3.0049 -11.3804
v  -7.1959 3.0049 -14.8817
v  -4.3675 3.0049 -12.0533
v  -6.0457 3.0049 -15.8640
v  -3.6946 3.0049 -12.6280
v  -4.7560 3.0049 -16.6544
v  -2.9401 3.0049 -13.0904
v  -3.3586 3.0049 -17.2332
v  -2.1225 3.0049 -13.4290
v  -1.8878 3.0049 -17.5863
v  -1.2620 3.0049 -13.6356
v  -0.3798 3.0049 -17.7050
v  -0.3798 3.0049 -13.7050
v  -1.8878 -0.0000 1.4552
v  -0.3798 -0.0000 1.5739
v  -0.3798 -0.0000 -2.4261
v  -1.2620 -0.0000 -2.4956
v  -2.1225 -0.0000 -2.7022
v  -2.9401 -0.0000 -3.0408
v  -3.6946 -0.0000 -3.5032
v  -4.3675 -0.0000 -4.0779
v  -4.9422 -0.0000 -4.7508
v  -5.4046 -0.0000 -5.5053
v  -5.7432 -0.0000 -6.3229
v  -5.9498 -0.0000 -7.1834
v  -6.0193 -0.0000 -8.0656
v  -5.9498 0.0000 -8.9478
v  -5.7432 0.0000 -9.8083
v  -5.4046 0.0000 -10.6258
v  -4.9422 0.0000 -11.3804
v  -4.3675 0.0000 -12.0533
v  -3.6946 0.0000 -12.6280
v  -2.9401 0.0000 -13.0904
v  -2.1225 0.0000 -13.4290
v  -1.2620 0.0000 -13.6356
v  -0.3798 0.0000 -13.7050
v  -0.3798 0.0000 -17.7050
v  -1.8878 0.0000 -17.5863
v  -3.3586 0.0000 -17.2332
v  -4.7560 -0.0000 -16.6544
v  -6.0457 -0.0000 -15.8640
v  -7.1959 -0.0000 -14.8817
v  -8.1783 -0.0000 -13.7315
v  -8.9686 -0.0000 -12.4418
v  -9.5475 -0.0000 -11.0443
v  -9.9006 -0.0000 -9.5735
v  -10.0193 0.0000 -8.0656
v  -9.9006 0.0000 -6.5576
v  -9.5475 0.0000 -5.0868
v  -8.9686 0.0000 -3.6894
v  -8.1783 0.0000 -2.3997
v  -7.1959 0.0000 -1.2495
v  -6.0457 0.0000 -0.2671
v  -4.7560 0.0000 0.5232
v  -3.3586 -0.0000 1.1021
v  -3.0000 0.0000 4.0594
v  -3.0000 0.0000 -4.9406
v  3.0000 0.0000 -0.6965
v  3.0000 0.0000 -0.1847
v  -3.0000 3.0000 4.0594
v  3.0000 3.0000 -0.1847
v  3.0000 3.0000 -0.6965
v  -3.0000 3.0000 -4.9406
# 92 vertices

vn -0.1132 0.6899 0.7150
vn 0.5562 0.5733 0.6016
vn 0.5973 0.5816 -0.5523
vn 0.1077 0.7253 -0.6800
vn -0.2237 0.6899 0.6885
vn 0.2128 0.7252 -0.6548
vn -0.3286 0.6899 0.6450
vn 0.3126 0.7252 -0.6135
vn -0.4255 0.6899 0.5856
vn 0.4047 0.7252 -0.5570
vn -0.5119 0.6899 0.5119
vn 0.4869 0.7252 -0.4869
vn -0.5857 0.6899 0.4255
vn 0.5570 0.7252 -0.4047
vn -0.6450 0.6899 0.3287
vn 0.6135 0.7252 -0.3126
vn -0.6885 0.6899 0.2237
vn 0.6548 0.7252 -0.2128
vn -0.7150 0.6899 0.1132
vn 0.6800 0.7252 -0.1077
vn -0.7239 0.6899 -0.0000
vn 0.6885 0.7252 0.0000
vn -0.7150 0.6899 -0.1132
vn 0.6800 0.7252 0.1077
vn -0.6885 0.6899 -0.2237
vn 0.6548 0.7252 0.2128
vn -0.6450 0.6899 -0.3287
vn 0.6135 0.7252 0.3126
vn -0.5857 0.6899 -0.4255
vn 0.5570 0.7252 0.4047
vn -0.5119 0.6899 -0.5119
vn 0.4869 0.7252 0.4869
vn -0.4255 0.6899 -0.5857
vn 0.4047 0.7252 0.5570
vn -0.3287 0.6899 -0.6450
vn 0.3126 0.7252 0.6135
vn -0.2237 0.6899 -0.6885
vn 0.2128 0.7252 0.6548
vn -0.1132 0.6899 -0.7150
vn 0.1077 0.7253 0.6800
vn 0.5562 0.5733 -0.6016
vn 0.5974 0.5816 0.5521
vn -0.1132 -0.6899 0.7150
vn 0.5562 -0.5733 0.6016
vn 0.5974 -0.5816 -0.5521
vn 0.1132 0.6899 -0.7150
vn 0.2237 0.6898 -0.6885
vn 0.3287 0.6899 -0.6450
vn 0.4255 0.6899 -0.5857
vn 0.5119 0.6899 -0.5119
vn 0.5857 0.6899 -0.4255
vn 0.6450 0.6899 -0.3287
vn 0.6885 0.6899 -0.2237
vn 0.7150 0.6899 -0.1132
vn 0.7239 0.6899 -0.0000
vn 0.7151 0.6898 0.1132
vn 0.6885 0.6899 0.2237
vn 0.6450 0.6899 0.3287
vn 0.5857 0.6899 0.4255
vn 0.5119 0.6899 0.5119
vn 0.4255 0.6899 0.5857
vn 0.3287 0.6899 0.6450
vn 0.2237 0.6899 0.6885
vn 0.1133 0.6899 0.7150
vn 0.5973 -0.5816 0.5523
vn 0.5562 -0.5733 -0.6016
vn -0.1132 -0.6899 -0.7150
vn -0.2237 -0.6899 -0.6885
vn -0.3287 -0.6899 -0.6450
vn -0.4255 -0.6899 -0.5857
vn -0.5119 -0.6899 -0.5119
vn -0.5857 -0.6899 -0.4255
vn -0.6450 -0.6899 -0.3287
vn -0.6885 -0.6899 -0.2237
vn -0.7150 -0.6899 -0.1132
vn -0.7240 -0.6898 0.0000
vn -0.7151 -0.6898 0.1132
vn -0.6885 -0.6899 0.2237
vn -0.6450 -0.6899 0.3287
vn -0.5857 -0.6899 0.4255
vn -0.5119 -0.6899 0.5119
vn -0.4255 -0.6898 0.5857
vn -0.3286 -0.6899 0.6450
vn -0.2237 -0.6899 0.6885
vn -0.3835 -0.5517 0.7406
vn -0.3835 -0.5517 -0.7406
vn 0.6990 -0.6169 -0.3617
vn 0.6990 -0.6169 0.3617
vn -0.3835 0.5517 0.7406
vn 0.6990 0.6169 0.3617
vn 0.6990 0.6169 -0.3617
vn -0.3835 0.5517 -0.7406
# 92 vertex normals

vt 0.0000 0.0500 0.0000
vt 0.0000 0.0000 0.0000
vt 1.0000 0.0000 0.0000
vt 1.0000 0.0500 0.0000
vt 0.0000 0.1000 0.0000
vt 1.0000 0.1000 0.0000
vt 0.0000 0.1500 0.0000
vt 1.0000 0.1500 0.0000
vt 0.0000 0.2000 0.0000
vt 1.0000 0.2000 0.0000
vt 0.0000 0.2500 0.0000
vt 1.0000 0.2500 0.0000
vt 0.0000 0.3000 0.0000
vt 1.0000 0.3000 0.0000
vt 0.0000 0.3500 0.0000
vt 1.0000 0.3500 0.0000
vt 0.0000 0.4000 0.0000
vt 1.0000 0.4000 0.0000
vt 0.0000 0.4500 0.0000
vt 1.0000 0.4500 0.0000
vt 0.0000 0.5000 0.0000
vt 1.0000 0.5000 0.0000
vt 0.0000 0.5500 0.0000
vt 1.0000 0.5500 0.0000
vt 0.0000 0.6000 0.0000
vt 1.0000 0.6000 0.0000
vt 0.0000 0.6500 0.0000
vt 1.0000 0.6500 0.0000
vt 0.0000 0.7000 0.0000
vt 1.0000 0.7000 0.0000
vt 0.0000 0.7500 0.0000
vt 1.0000 0.7500 0.0000
vt 0.0000 0.8000 0.0000
vt 1.0000 0.8000 0.0000
vt 0.0000 0.8500 0.0000
vt 1.0000 0.8500 0.0000
vt 0.0000 0.9000 0.0000
vt 1.0000 0.9000 0.0000
vt 0.0000 0.9500 0.0000
vt 1.0000 0.9500 0.0000
vt 0.0000 1.0000 0.0000
vt 1.0000 1.0000 0.0000
# 42 texture coords

o Plane001
g Plane001
usemtl wire_229166215
s 1
f 1/1/1 2/2/2 3/3/3 4/4/4 
f 5/5/5 1/1/1 4/4/4 6/6/6 
f 7/7/7 5/5/5 6/6/6 8/8/8 
f 9/9/9 7/7/7 8/8/8 10/10/10 
f 11/11/11 9/9/9 10/10/10 12/12/12 
f 13/13/13 11/11/11 12/12/12 14/14/14 
f 15/15/15 13/13/13 14/14/14 16/16/16 
f 17/17/17 15/15/15 16/16/16 18/18/18 
f 19/19/19 17/17/17 18/18/18 20/20/20 
f 21/21/21 19/19/19 20/20/20 22/22/22 
f 23/23/23 21/21/21 22/22/22 24/24/24 
f 25/25/25 23/23/23 24/24/24 26/26/26 
f 27/27/27 25/25/25 26/26/26 28/28/28 
f 29/29/29 27/27/27 28/28/28 30/30/30 
f 31/31/31 29/29/29 30/30/30 32/32/32 
f 33/33/33 31/31/31 32/32/32 34/34/34 
f 35/35/35 33/33/33 34/34/34 36/36/36 
f 37/37/37 35/35/35 36/36/36 38/38/38 
f 39/39/39 37/37/37 38/38/38 40/40/40 
f 41/41/41 39/39/39 40/40/40 42/42/42 
s off
f 43/1/43 44/2/44 2/2/2 1/1/1 
f 44/2/44 45/3/45 3/3/3 2/2/2 
f 45/3/45 46/4/46 4/4/4 3/3/3 
f 46/4/46 47/6/47 6/6/6 4/4/4 
f 47/6/47 48/8/48 8/8/8 6/6/6 
f 48/8/48 49/10/49 10/10/10 8/8/8 
f 49/10/49 50/12/50 12/12/12 10/10/10 
f 50/12/50 51/14/51 14/14/14 12/12/12 
f 51/14/51 52/16/52 16/16/16 14/14/14 
f 52/16/52 53/18/53 18/18/18 16/16/16 
f 53/18/53 54/20/54 20/20/20 18/18/18 
f 54/20/54 55/22/55 22/22/22 20/20/20 
f 55/22/55 56/24/56 24/24/24 22/22/22 
f 56/24/56 57/26/57 26/26/26 24/24/24 
f 57/26/57 58/28/58 28/28/28 26/26/26 
f 58/28/58 59/30/59 30/30/30 28/28/28 
f 59/30/59 60/32/60 32/32/32 30/30/30 
f 60/32/60 61/34/61 34/34/34 32/32/32 
f 61/34/61 62/36/62 36/36/36 34/34/34 
f 62/36/62 63/38/63 38/38/38 36/36/36 
f 63/38/63 64/40/64 40/40/40 38/38/38 
f 64/40/64 65/42/65 42/42/42 40/40/40 
f 65/42/65 66/41/66 41/41/41 42/42/42 
f 66/41/66 67/39/67 39/39/39 41/41/41 
f 67/39/67 68/37/68 37/37/37 39/39/39 
f 68/37/68 69/35/69 35/35/35 37/37/37 
f 69/35/69 70/33/70 33/33/33 35/35/35 
f 70/33/70 71/31/71 31/31/31 33/33/33 
f 71/31/71 72/29/72 29/29/29 31/31/31 
f 72/29/72 73/27/73 27/27/27 29/29/29 
f 73/27/73 74/25/74 25/25/25 27/27/27 
f 74/25/74 75/23/75 23/23/23 25/25/25 
f 75/23/75 76/21/76 21/21/21 23/23/23 
f 76/21/76 77/19/77 19/19/19 21/21/21 
f 77/19/77 78/17/78 17/17/17 19/19/19 
f 78/17/78 79/15/79 15/15/15 17/17/17 
f 79/15/79 80/13/80 13/13/13 15/15/15 
f 80/13/80 81/11/81 11/11/11 13/13/13 
f 81/11/81 82/9/82 9/9/9 11/11/11 
f 82/9/82 83/7/83 7/7/7 9/9/9 
f 83/7/83 84/5/84 5/5/5 7/7/7 
f 84/5/84 43/1/43 1/1/1 5/5/5 
f 43/1/43 84/5/84 83/7/83 82/9/82 81/11/81 80/13/80 79/15/79 78/17/78 77/19/77 76/21/76 75/23/75 74/25/74 73/27/73 72/29/72 71/31/71 70/33/70 69/35/69 68/37/68 67/39/67 66/41/66 65/42/65 64/40/64 63/38/63 62/36/62 61/34/61 60/32/60 59/30/59 58/28/58 57/26/57 56/24/56 55/22/55 54/20/54 53/18/53 52/16/52 51/14/51 50/12/50 49/10/49 48/8/48 47/6/47 46/4/46 45/3/45 44/2/44 
s 2
f 85/3/85 86/42/86 87/41/87 88/2/88 
s 4
f 89/2/89 90/3/90 91/42/91 92/41/92 
s 8
f 85/2/85 88/3/88 90/42/90 89/41/89 
s 16
f 88/2/88 87/3/87 91/42/91 90/41/90 
s 32
f 87/2/87 86/3/86 92/42/92 91/41/91 
s 64
f 86/2/86 85/3/85 89/42/89 92/41/92 
# 69 polygons

