# 3ds Max Wavefront OBJ Exporter v0.97b - (c)2007 guruware
# 创建的文件:31.01.2024 15:24:05

mtllib arrow.mtl

#
# object Box001
#

v  -2.4000 0.0000 9.0000
v  -2.4000 0.0000 -8.6912
v  -2.1529 0.0000 -9.0000
v  2.1529 0.0000 -9.0000
v  2.4000 0.0000 -8.6912
v  2.4000 0.0000 9.0000
v  -2.4000 3.0000 9.0000
v  2.4000 3.0000 9.0000
v  2.4000 3.0000 -8.6912
v  2.1529 3.0000 -9.0000
v  -2.1529 3.0000 -9.0000
v  -2.4000 3.0000 -8.6912
v  -0.3292 0.0000 15.0000
v  -0.5481 0.0000 14.8597
v  -5.8558 0.0000 3.3137
v  -5.6547 0.0000 3.0000
v  5.6547 0.0000 3.0000
v  5.8558 0.0000 3.3137
v  0.5481 0.0000 14.8597
v  0.3292 0.0000 15.0000
v  -0.5481 3.0000 14.8597
v  -0.3292 3.0000 15.0000
v  0.3292 3.0000 15.0000
v  0.5481 3.0000 14.8597
v  5.8558 3.0000 3.3137
v  5.6547 3.0000 3.0000
v  -5.6547 3.0000 3.0000
v  -5.8558 3.0000 3.3137
# 28 vertices

vn -0.5774 -0.5774 0.5774
vn -0.7173 -0.6303 -0.2971
vn -0.2971 -0.6303 -0.7173
vn 0.2971 -0.6303 -0.7173
vn 0.7173 -0.6303 -0.2971
vn 0.5774 -0.5774 0.5774
vn -0.5774 0.5774 0.5774
vn 0.5774 0.5774 0.5774
vn 0.7173 0.6303 -0.2971
vn 0.2971 0.6303 -0.7173
vn -0.2971 0.6303 -0.7173
vn -0.7173 0.6303 -0.2971
vn -0.1767 -0.6579 0.7321
vn -0.5252 -0.6485 0.5510
vn -0.7979 -0.5996 -0.0616
vn -0.3392 -0.6214 -0.7063
vn 0.3392 -0.6214 -0.7063
vn 0.7979 -0.5996 -0.0616
vn 0.5252 -0.6485 0.5510
vn 0.1767 -0.6579 0.7321
vn -0.5252 0.6485 0.5510
vn -0.1767 0.6579 0.7321
vn 0.1767 0.6579 0.7321
vn 0.5252 0.6485 0.5510
vn 0.7979 0.5996 -0.0616
vn 0.3392 0.6214 -0.7063
vn -0.3392 0.6214 -0.7063
vn -0.7979 0.5996 -0.0616
# 28 vertex normals

vt 1.0000 0.0000 0.0000
vt 1.0000 0.9828 0.0000
vt 0.9485 1.0000 0.0000
vt 0.0515 1.0000 0.0000
vt 0.0000 0.9828 0.0000
vt 0.0000 0.0000 0.0000
vt 1.0000 1.0000 0.0000
vt 0.0000 1.0000 0.0000
vt 0.9828 0.0000 0.0000
vt 0.9828 1.0000 0.0000
vt 0.0515 0.0000 0.0000
vt 0.9485 0.0000 0.0000
vt 0.0172 0.0000 0.0000
vt 0.0172 1.0000 0.0000
vt -0.0914 0.0000 0.0000
vt -0.0914 1.0000 0.0000
vt -0.2741 0.0000 0.0000
vt -0.2741 1.0000 0.0000
vt 0.8404 0.0000 0.0000
vt 1.0000 0.0117 0.0000
vt 1.0000 0.9739 0.0000
vt 0.9712 1.0000 0.0000
vt 0.0288 1.0000 0.0000
vt 0.0000 0.9739 0.0000
vt 0.0000 0.0117 0.0000
vt 0.1596 0.0000 0.0000
vt 0.8404 1.0000 0.0000
vt 0.1596 1.0000 0.0000
vt 0.0117 0.0000 0.0000
vt 0.9739 0.0000 0.0000
vt 0.9739 1.0000 0.0000
vt 0.0117 1.0000 0.0000
vt 0.0288 0.0000 0.0000
vt 0.9712 0.0000 0.0000
vt 0.0261 0.0000 0.0000
vt 0.9883 0.0000 0.0000
vt 0.9883 1.0000 0.0000
vt 0.0261 1.0000 0.0000
vt -0.5662 -0.0000 0.0000
vt -0.5662 1.0000 0.0000
vt 1.5662 1.0000 0.0000
vt 1.5662 0.0000 0.0000
vt -0.0930 0.0000 0.0000
vt -0.0930 1.0000 0.0000
vt -0.1015 0.0000 0.0000
vt -0.1015 1.0000 0.0000
# 46 texture coords

o Box001
g Box001
usemtl 01___Default
s 1
f 1/1/1 2/2/2 3/3/3 4/4/4 5/5/5 6/6/6 
f 7/6/7 8/1/8 9/2/9 10/3/10 11/4/11 12/5/12 
s 2
f 1/6/1 6/1/6 8/7/8 7/8/7 
s 4
f 6/6/6 5/9/5 9/10/9 8/8/8 
s 2
f 4/11/4 3/12/3 11/3/11 10/4/10 
s 4
f 2/13/2 1/1/1 7/7/7 12/14/12 
s 8
f 5/15/5 4/11/4 10/4/10 9/16/9 
f 3/17/3 2/13/2 12/14/12 11/18/11 
s 1
f 13/19/13 14/20/14 15/21/15 16/22/16 17/23/17 18/24/18 19/25/19 20/26/20 
f 21/25/21 22/26/22 23/19/23 24/20/24 25/21/25 26/22/26 27/23/27 28/24/28 
s 2
f 13/26/13 20/19/20 23/27/23 22/28/22 
f 19/29/19 18/30/18 25/31/25 24/32/24 
f 17/33/17 16/34/16 27/22/27 26/23/26 
f 15/35/15 14/36/14 21/37/21 28/38/28 
s 4
f 20/39/20 19/29/19 24/32/24 23/40/23 
f 22/41/22 21/37/21 14/36/14 13/42/13 
f 18/43/18 17/33/17 26/23/26 25/44/25 
f 16/45/16 15/35/15 28/38/28 27/46/27 
# 18 polygons

